<?xml version="1.0" encoding="UTF-8"?><svg version="1.1" viewBox="0 0 12 13" xmlns="http://www.w3.org/2000/svg"><g fill="none" fill-opacity=".13" fill-rule="evenodd"><g transform="translate(-2 -3)" fill="#000"><path d="m13.89 15.999c-0.090319-2.6476-0.4182-3.5392-1.5754-4.1454-0.40686-0.21313-1.0674-0.29058-1.826-0.55377 0.0029225-0.019821 0.0040267-0.030449 0.0040267-0.030449s-0.12239-0.26728-0.1778-0.37454c-0.13044-0.25236-0.2171-0.30079-0.56756-0.32573-0.082184-0.32869-0.041777-0.66838 0.10127-0.97372 0.029071-0.033769 0.056206-0.064358 0.080064-0.089559 0.034945-0.036934 0.16276-0.52639 0.1812-0.76153 0.0010748-0.013918 0.031957-0.035079 0.050073-0.036315 0.061925-0.00421 0.11925-0.016958 0.15254-0.072999 0.022254-0.037449 0.036013-0.080388 0.050537-0.12191 0.044567-0.12761 0.079726-0.26723 0.14683-0.38133 0.15883-0.27004 0.28424-0.54578 0.26647-0.86684-0.009224-0.16625-0.025537-0.33222-0.043573-0.49778-0.0023704-0.021735-0.014885-0.040349-0.03298-0.049468 0.039988-0.1211-0.030514-0.25079-0.038449-0.35524-4.711e-4 -0.006374-7.141e-4 -0.012667-6.846e-4 -0.018791 0.033539-0.0058661 0.048174 0.039819 0.079269 0.050933-0.0059334-0.079755 5.815e-4 -0.16455 0.0091209-0.25034 0.010888-0.0013616 0.017086-0.0022007 0.017086-0.0021271 3.681e-4 -0.0055349 0.05463-0.24441 0.055101-0.25293 0.021312-0.40412 0.10945-0.7337-0.0029814-1.1271-0.10021-0.35066-0.23503-0.99032-0.78904-1.1917-0.20991-0.076318-0.80583-0.11749-0.80583-0.11749s-0.10266-0.36912-0.47042-0.4301l-2.6502e-4 -4.416e-5c-0.46092-0.06912-0.42523 0.047238-0.80316 0-0.19481-0.024355-0.55702-0.024701-0.99208 0.16532-0.52138 0.22767-0.77511 0.42756-0.97378 0.63847-0.028813 0.021396-0.054983 0.044515-0.077554 0.069996-5.889e-5 5.888e-5 -1.1778e-4 1.2513e-4 -1.6931e-4 1.8401e-4 -0.38909 0.43942-0.60759 1.132-0.57447 1.7204 6.9934e-4 0.01252 0.0028342 0.030479 0.0064561 0.052604 0.10974 0.67206-0.051457 0.5893 0.0040341 0.72492 0.029785-0.01433 0.04121-0.042682 0.0731-0.055503 0.015746 0.084172-0.050979 0.25506-0.026413 0.37277-0.03281-0.0017959-0.05798 0.023494-0.061454 0.055349-0.018028 0.16556-0.034371 0.33153-0.043588 0.49778-0.017756 0.32106 0.10764 0.5968 0.26649 0.86684 0.067101 0.1141 0.10224 0.25371 0.14681 0.38133 0.014517 0.041526 0.028268 0.084466 0.050522 0.12191 0.033318 0.056041 0.090643 0.068789 0.15253 0.072999 0.018154 0.0012365 0.048999 0.022397 0.050132 0.036315 0.018411 0.23514 0.14096 0.72079 0.17596 0.7577 0.0041519 0.0043867 0.008429 0.0089721 0.012772 0.013675 3.1655e-4 3.8274e-4 6.4046e-4 8.3171e-4 9.4964e-4 0.0011482 0.0015386 0.0016266 0.0031508 0.0033636 0.0047335 0.005027 0.022777 0.024841 0.04799 0.053582 0.074764 0.08476 0.11511 0.24568 0.19461 0.58078 0.092181 0.97745 0.001141-0.0049755 0.0022747-0.009951 0.0034599-0.01514-0.35255 0.0249-0.43926 0.072969-0.56998 0.32592-0.055447 0.10726-0.17781 0.37454-0.17781 0.37454s4.7114e-4 0.0044603 0.0015827 0.012924c-0.77799 0.27053-1.4597 0.3547-1.8732 0.57129-1.1572 0.60624-1.4851 1.4978-1.5754 4.1454h11.77z"/></g></g></svg>
