<?xml version="1.0" encoding="UTF-8"?>
<svg width="124px" height="32px" viewBox="0 0 124 32" version="1.1" xmlns="http://www.w3.org/2000/svg" xmlns:xlink="http://www.w3.org/1999/xlink">
	<title>Open Colleges&apos; Logo</title>
	<defs>
		<linearGradient x1="3.8288601%" y1="81.0175874%" x2="81.718601%" y2="4.82544349%" id="linearGradient-1">
			<stop stop-color="#27BDBE" offset="0%"></stop>
			<stop stop-color="#34BEB8" offset="11.03%"></stop>
			<stop stop-color="#4CBFA8" offset="29.03%"></stop>
			<stop stop-color="#67C28E" offset="51.76%"></stop>
			<stop stop-color="#84C665" offset="78.05%"></stop>
			<stop stop-color="#9ACA3C" offset="100%"></stop>
		</linearGradient>
		<linearGradient x1="18.2619492%" y1="95.2113026%" x2="96.1919647%" y2="19.0192093%" id="linearGradient-2">
			<stop stop-color="#9ACA3C" offset="0%"></stop>
			<stop stop-color="#84C665" offset="21.95%"></stop>
			<stop stop-color="#67C28E" offset="48.24%"></stop>
			<stop stop-color="#4CBFA8" offset="70.97%"></stop>
			<stop stop-color="#34BEB8" offset="88.97%"></stop>
			<stop stop-color="#27BDBE" offset="100%"></stop>
		</linearGradient>
	</defs>
	<path d="M7.875,24.75 C7.3125,23.2875 7.0125,21.6875 7.0125,20.025 C7.0125,12.6875 12.9625,6.7375 20.3,6.7375 C21.6625,6.7375 22.975,6.9375 24.2125,7.325 C23.025,4.225 20.725,1.675 17.775,0.1875 C17.2,0.125 16.625,0.0875 16.0375,0.0875 C7.2375,0.0875 0.0875,7.225 0.0875,16.0375 C0.0875,16.975 0.175,17.8875 0.325,18.7875 C2,21.6125 4.675,23.775 7.875,24.75 Z" id="shape" fill="url(#linearGradient-1)"></path>
	<path d="M24.2125,7.325 C27.4125,8.3125 30.0875,10.4625 31.75,13.2875 C30.55,6.35 24.8625,0.95 17.775,0.1875 C20.7125,1.675 23.025,4.225 24.2125,7.325 Z" id="shape" fill="#00A76D"></path>
	<path d="M7.875,24.75 C4.675,23.7625 2,21.6125 0.3375,18.7875 C1.5375,25.725 7.225,31.125 14.3,31.8875 C11.3625,30.4 9.05,27.8625 7.875,24.75 Z" id="shape" fill="#00A76D"></path>
	<path d="M31.9875,16.0375 C31.9875,15.1 31.9,14.1875 31.75,13.2875 C30.0875,10.4625 27.4,8.3 24.2125,7.325 C24.775,8.7875 25.075,10.3875 25.075,12.05 C25.075,19.3875 19.125,25.3375 11.7875,25.3375 C10.425,25.3375 9.1125,25.1375 7.875,24.75 C9.05,27.85 11.3625,30.4 14.3,31.8875 C14.875,31.95 15.45,31.9875 16.0375,31.9875 C24.85,31.9875 31.9875,24.85 31.9875,16.0375 Z" id="shape" fill="url(#linearGradient-2)"></path>
	<g id="wordmark" transform="translate(37.125000, 10.139875)" fill="#000000">
		<path d="M4.8772625,10.096925 C2.8105125,10.096925 1.5766375,8.538925 1.5766375,5.92905 C1.5766375,3.319425 2.8105125,1.7613 4.8772625,1.7613 C6.9440125,1.7613 8.1778875,3.319425 8.1778875,5.92905 C8.1778875,8.538925 6.9440125,10.096925 4.8772625,10.096925 M8.4540125,2.13805 C7.6072625,1.141175 6.3705125,0.6143 4.8772625,0.6143 C3.3840125,0.6143 2.1471375,1.141175 1.3005125,2.13805 C0.5020125,3.078425 0.0797625,4.3893 0.0797625,5.92905 C0.0797625,7.469175 0.5020125,8.78005 1.3005125,9.720175 C2.1471375,10.717175 3.3840125,11.244175 4.8772625,11.244175 C6.3705125,11.244175 7.6072625,10.717175 8.4540125,9.720175 C9.2526375,8.78005 9.6747625,7.469175 9.6747625,5.92905 C9.6747625,4.3893 9.2526375,3.078425 8.4540125,2.13805" id="Fill-16"></path>
		<path d="M14.4566625,10.0689625 C13.0441625,10.0689625 12.4007875,8.7929625 12.4007875,7.6074625 C12.4007875,6.3840875 13.1165375,5.1460875 14.4845375,5.1460875 C16.1846625,5.1460875 16.3167875,7.0300875 16.3167875,7.6074625 C16.3167875,8.7974625 15.8280375,10.0689625 14.4566625,10.0689625 M14.5685375,4.0548375 C13.6749125,4.0548375 12.8434125,4.4407125 12.3316625,5.0770875 C12.1746625,4.3790875 11.6575375,4.2227125 11.2256625,4.2227125 C10.9854125,4.2227125 10.7154125,4.2923375 10.4359125,4.4222125 L10.4359125,5.3394625 C10.5419125,5.2800875 10.6707875,5.2300875 10.8061625,5.2300875 C10.9591625,5.2300875 11.0857875,5.2624625 11.0857875,5.6634625 L11.0857875,14.0612125 L12.4007875,14.0612125 L12.4007875,10.2308375 C12.8865375,10.8477125 13.6561625,11.1600875 14.6944125,11.1600875 C16.4732875,11.1600875 17.7156625,9.6990875 17.7156625,7.6074625 C17.7156625,5.4160875 16.5096625,4.0548375 14.5685375,4.0548375" id="Fill-8"></path>
		<path d="M19.99945,7.089725 C20.150075,5.744475 20.73245,5.090225 21.77795,5.090225 C22.816325,5.090225 23.35545,5.744475 23.4237,7.089725 L19.99945,7.089725 Z M24.79895,7.5236 C24.79895,5.286725 23.74095,4.05485 21.8197,4.05485 C20.85045,4.05485 20.032075,4.399725 19.4527,5.05235 C18.88745,5.6891 18.58895,6.572725 18.58895,7.607475 C18.58895,9.765725 19.90645,11.1601 21.945575,11.1601 C23.18245,11.1601 23.77445,10.923225 24.232325,10.70135 L24.29545,10.670725 L24.29545,9.50335 L24.1302,9.59285 C23.5142,9.927225 22.86445,10.082975 22.085575,10.082975 C20.613325,10.082975 20.082075,8.89585 19.9852,8.111225 L24.79895,8.111225 L24.79895,7.5236 Z" id="Fill-18"></path>
		<path d="M32.8995375,9.8641375 C32.7770375,9.9545125 32.5491625,10.0550125 32.4224125,10.0550125 C32.3229125,10.0550125 32.2694125,10.0416375 32.2379125,10.0088875 C32.1874125,9.9568875 32.1505375,9.8323875 32.1567875,9.6376375 L32.1567875,6.5897625 C32.1792875,5.7945125 31.9750375,5.1690125 31.5491625,4.7306375 C31.1135375,4.2821375 30.4660375,4.0547625 29.6249125,4.0547625 C28.6572875,4.0547625 27.9537875,4.5623875 27.5569125,5.1136375 C27.4711625,4.6688875 27.2300375,4.2227625 26.5060375,4.2227625 C26.2381625,4.2227625 25.9335375,4.3098875 25.6197875,4.4701375 L25.6197875,5.3996375 C25.7377875,5.3180125 25.9064125,5.2301375 26.0864125,5.2301375 C26.2394125,5.2301375 26.3660375,5.2625125 26.3660375,5.6635125 L26.3660375,10.9922625 L27.6669125,10.9922625 L27.6669125,7.6913875 C27.6669125,7.1010125 27.8010375,5.1740125 29.5271625,5.1740125 C29.9166625,5.1740125 30.2231625,5.2845125 30.4381625,5.5023875 C30.7046625,5.7728875 30.8357875,6.2027625 30.8277875,6.7796375 L30.8277875,9.6755125 C30.8187875,10.2027625 30.9197875,10.5552625 31.1454125,10.7847625 C31.3382875,10.9808875 31.6141625,11.0761375 31.9887875,11.0761375 C32.2945375,11.0761375 32.6061625,10.9952625 32.8995375,10.8436375 L32.8995375,9.8641375 Z" id="Fill-12"></path>
		<path d="M42.6294,9.3597375 L42.612775,9.3682375 C42.0019,9.6871125 41.250025,10.0269875 40.049025,10.0269875 C37.998525,10.0269875 36.566525,8.3418625 36.566525,5.9291125 C36.566525,3.4613625 37.94365,1.8033625 39.99315,1.8033625 C40.980275,1.8033625 41.655025,2.0377375 42.31565,2.2989875 L42.41965,2.3401125 L42.850775,1.2537375 L42.750775,1.2107375 C42.102775,0.9329875 41.19415,0.6142375 39.9094,0.6142375 C38.50315,0.6142375 37.294275,1.1256125 36.413525,2.0932375 C35.534525,3.0591125 35.069775,4.3856125 35.069775,5.9291125 C35.069775,9.1081125 37.0034,11.2441125 39.88115,11.2441125 C40.9424,11.2441125 41.865775,11.0474875 42.6294,10.6604875 L42.6294,9.3597375 Z" id="Fill-10"></path>
		<path d="M46.7629375,10.1109625 C45.3175625,10.1109625 44.8049375,8.7623375 44.8049375,7.6074625 C44.8049375,6.4524625 45.3175625,5.1040875 46.7629375,5.1040875 C48.2080625,5.1040875 48.7206875,6.4524625 48.7206875,7.6074625 C48.7206875,8.7623375 48.2080625,10.1109625 46.7629375,10.1109625 M46.7629375,4.0548375 C44.7406875,4.0548375 43.4340625,5.4493375 43.4340625,7.6074625 C43.4340625,9.7657125 44.7406875,11.1602125 46.7629375,11.1602125 C48.7851875,11.1602125 50.0915625,9.7657125 50.0915625,7.6074625 C50.0915625,5.4493375 48.7851875,4.0548375 46.7629375,4.0548375" id="Fill-20"></path>
		<path d="M53.7063,9.81945 L53.680925,9.777825 L53.58205,9.854825 C53.462925,9.947325 53.222425,10.055075 53.0913,10.055075 C52.908675,10.055075 52.825675,10.055075 52.825675,9.635575 L52.825675,1.243825 C52.825675,0.470325 52.407425,0.026825 51.678425,0.026825 C51.367425,0.026825 50.991175,0.144825 50.626425,0.35045 L50.626425,1.27445 L50.638425,1.29445 L50.7373,1.22245 C50.855425,1.13645 51.03705,1.034075 51.230925,1.034075 C51.38405,1.034075 51.5108,1.0667 51.5108,1.467575 L51.5108,9.677575 C51.5108,10.3692 51.646675,11.0762 52.657675,11.0762 C53.011675,11.0762 53.37405,10.968075 53.7063,10.7667 L53.7063,9.81945 Z" id="Fill-14"></path>
		<path d="M57.1610125,9.81945 L57.1356375,9.777825 L57.0365125,9.854825 C56.9176375,9.947325 56.6771375,10.055075 56.5460125,10.055075 C56.3633875,10.055075 56.2801375,10.055075 56.2801375,9.635575 L56.2801375,1.243825 C56.2801375,0.470325 55.8621375,0.026825 55.1331375,0.026825 C54.8221375,0.026825 54.4458875,0.144825 54.0811375,0.35045 L54.0811375,1.27445 L54.0931375,1.29445 L54.1922625,1.22245 C54.3101375,1.13645 54.4917625,1.034075 54.6856375,1.034075 C54.8387625,1.034075 54.9652625,1.0667 54.9652625,1.467575 L54.9652625,9.677575 C54.9652625,10.3692 55.1016375,11.0762 56.1121375,11.0762 C56.4666375,11.0762 56.8285125,10.968075 57.1610125,10.7667 L57.1610125,9.81945 Z" id="Fill-22"></path>
		<path d="M59.3302,7.089725 C59.480575,5.744475 60.063325,5.090225 61.108575,5.090225 C62.147075,5.090225 62.68645,5.744475 62.754325,7.089725 L59.3302,7.089725 Z M64.1297,7.5236 C64.1297,5.286725 63.0717,4.05485 61.150575,4.05485 C60.181325,4.05485 59.3627,4.399725 58.783325,5.05235 C58.218325,5.688975 57.919575,6.572725 57.919575,7.607475 C57.919575,9.765725 59.2372,11.1601 61.2762,11.1601 C62.513325,11.1601 63.105075,10.923225 63.563075,10.70135 L63.626325,10.670725 L63.626325,9.50335 L63.460825,9.59285 C62.844825,9.927225 62.1952,10.082975 61.416075,10.082975 C59.9442,10.082975 59.4127,8.89585 59.315825,8.111225 L64.1297,8.111225 L64.1297,7.5236 Z" id="Fill-24"></path>
		<path d="M68.3678,10.0689625 C66.641675,10.0689625 66.507675,8.1847125 66.507675,7.6074625 C66.507675,7.0300875 66.641675,5.1460875 68.3678,5.1460875 C69.7723,5.1460875 70.507425,6.3840875 70.507425,7.6074625 C70.507425,8.8307125 69.7723,10.0689625 68.3678,10.0689625 Z M70.507425,4.2227125 L70.507425,4.9882125 C70.0218,4.3833375 69.227175,4.0548375 68.227675,4.0548375 C66.362175,4.0548375 65.1088,5.4825875 65.1088,7.6074625 C65.1088,9.7987125 66.33605,11.1600875 68.311675,11.1600875 C69.1793,11.1600875 69.99105,10.8103375 70.507425,10.2300875 L70.507425,10.7403375 C70.507425,12.4343375 69.7848,13.2579625 68.297675,13.2579625 C67.290925,13.2579625 66.5743,13.0130875 66.1508,12.8074625 L65.989925,12.7293375 L65.989925,13.9084625 L66.061675,13.9360875 C66.52255,14.1133375 67.2633,14.3489625 68.3678,14.3489625 C70.5633,14.3489625 71.822425,13.0032125 71.822425,10.6564625 L71.822425,4.2227125 L70.507425,4.2227125 Z" id="Fill-1"></path>
		<path d="M74.300775,7.089725 C74.45115,5.744475 75.03365,5.090225 76.0789,5.090225 C77.11765,5.090225 77.656775,5.744475 77.72465,7.089725 L74.300775,7.089725 Z M79.10015,7.5236 C79.10015,5.286725 78.042275,4.05485 76.12115,4.05485 C75.1519,4.05485 74.333025,4.399725 73.7539,5.05235 C73.188775,5.688975 72.89015,6.572725 72.89015,7.607475 C72.89015,9.765725 74.207775,11.1601 76.246775,11.1601 C77.48365,11.1601 78.0759,10.923225 78.53365,10.70135 L78.59665,10.670725 L78.59665,9.50335 L78.4314,9.59285 C77.8154,9.927225 77.165775,10.082975 76.38665,10.082975 C74.914775,10.082975 74.383525,8.89585 74.2864,8.111225 L79.10015,8.111225 L79.10015,7.5236 Z" id="Fill-3"></path>
		<path d="M82.9204125,6.952875 C81.8292875,6.698875 81.3427875,6.395875 81.3427875,5.971125 C81.3427875,5.37725 81.7897875,5.076125 82.6714125,5.076125 C83.3666625,5.076125 83.9229125,5.30625 84.2221625,5.429875 C84.3020375,5.463 84.3650375,5.489125 84.4140375,5.5045 L84.5075375,5.533625 L84.9155375,4.664625 L84.8232875,4.614125 C84.1637875,4.2535 83.3999125,4.05475 82.6714125,4.05475 C81.3761625,4.05475 80.0697875,4.686375 80.0697875,6.097 C80.0697875,7.442 81.2172875,7.751625 82.4340375,8.07975 C83.3815375,8.32025 83.8044125,8.529375 83.8044125,9.132 C83.8044125,9.844375 83.0585375,10.096875 82.4196625,10.096875 C81.6494125,10.096875 80.9189125,9.8695 80.1862875,9.40125 L80.0139125,9.291125 L80.0139125,10.541875 L80.0730375,10.5735 C80.7995375,10.96275 81.6269125,11.160125 82.5317875,11.160125 C83.7250375,11.160125 85.1191625,10.59225 85.1191625,8.992 C85.1191625,7.720875 84.2400375,7.2575 82.9204125,6.952875" id="Fill-5"></path>
	</g>
</svg>