<?xml version="1.0" encoding="UTF-8"?><svg version="1.1" viewBox="0 0 12 13" xmlns="http://www.w3.org/2000/svg"><g fill="none" fill-opacity=".13" fill-rule="evenodd"><g transform="translate(-2 -3)" fill="#000"><path d="m5.0718 9.1045c0.18676 0.6681 0.53765 1.0012 0.83782 1.1672-0.42962-0.14964-1.1256-0.50568-0.8733-1.0909 0.011534-0.026756 0.023394-0.05207 0.035479-0.076312zm5.0102 1.1413c0.25894-0.1887 0.42936-0.51069 0.64162-0.98344 0.32532 0.43348-0.19943 0.77946-0.64162 0.98344zm1.7625 1.6691c-0.36889-0.21321-0.97703-0.29605-1.6711-0.56234 9.853e-4 -0.0083318-0.10776-0.27582-0.15722-0.38141-0.089302-0.19065-0.1557-0.263-0.32303-0.29747h-0.38621c-0.0085274-0.069154-0.01399-0.14558-0.016794-0.22109 0.2859 0.0015577 0.50159-0.042137 0.67714-0.13503 0.59895-0.17237 1.2244-0.30612 1.1201-1.2213-0.03437-0.30139-0.089005-0.62999-0.11583-0.93285-0.036776-0.41523 0.02196-0.76108 0.070936-1.1871 0.099931-0.86942 0.020286-1.0492-0.10179-1.4836-0.30419-1.0825-1.2164-2.5245-2.7085-2.4922-0.39513 0.0085636-0.87862 0.36984-0.94716 0.4226-0.0043832 0.0014997-0.0087665 0.0029777-0.013114 0.0045064-0.059069-0.023206-0.66145-0.23529-1.3019 0.49231-0.7433 0.84438-1.0088 2.0929-0.94254 3.2256 0.038007 0.65026-0.09596 1.1822-0.16997 1.8116-0.11048 0.93977 0.60839 1.2784 1.3596 1.3993 0.16593 0.026734 0.33342 0.042818 0.49392 0.052447-0.0021156 0.089288-0.0079406 0.18214-0.018098 0.26464h-0.44248c-0.13459 0.042391-0.23633 0.13782-0.31109 0.29747-0.04944 0.10559-0.15763 0.37913-0.15502 0.39864-0.67668 0.25907-1.266 0.33531-1.6289 0.5451-1.0324 0.59677-1.3249 1.4744-1.4054 4.0805h10.5c-0.080558-2.6062-0.37308-3.4838-1.4054-4.0805"/></g></g></svg>
