<?xml version="1.0" encoding="UTF-8"?><svg version="1.1" viewBox="0 0 12 13" xmlns="http://www.w3.org/2000/svg"><g fill="none" fill-opacity=".13" fill-rule="evenodd"><g transform="translate(-2 -3)" fill="#000"><path d="m12.228 11.93c-0.40596-0.21269-1.0752-0.29533-1.839-0.56095 0.0010985-0.008333-0.11859-0.27516-0.173-0.38047-0.12834-0.24838-0.21346-0.29559-0.55957-0.32003 0.0011708 0.0051385 0.0022982 0.01006 0.0034112 0.014975-0.098839-0.38277-0.11973-0.72092 0.064763-0.94731 0.14306-0.17553 0.2506-0.38113 0.2506-0.61885v-0.22634c5.059e-5 -6.2877e-4 1.1563e-4 -0.0013009 1.6622e-4 -0.0019297 0.0010769-0.013602 0.031106-0.0343 0.048791-0.0355 0.060239-0.0041267 0.11605-0.016608 0.14847-0.071426 0.021689-0.03662 0.035038-0.078632 0.049174-0.11926 0.043421-0.12479 0.077598-0.26136 0.14295-0.37297 0.15461-0.26413 0.27667-0.53383 0.25937-0.84787-0.0089545-0.16263-0.024876-0.32496-0.042395-0.48692-0.0033751-0.031055-0.02776-0.055758-0.059545-0.054146 0.003086-0.095124 0.18877-1.8053 0.18877-1.8053s-0.2635-0.31406-0.43625-0.51971c0.093289 0.10898 0.13737 0.15653 0.13701 0.15634-0.0011853-0.0024067 0.24458 0.11181 0.24334 0.10941-0.13404-0.26079-0.25438-0.58144-0.63678-0.89002-0.2407-0.19423-0.69987-0.27318-0.97626-0.45041 4.3363e-4 -4.336e-5 8.6726e-4 -9.395e-5 0.0013009-1.3731e-4 0.070082-0.0071983 0.50041 0.099555 0.55787 0.14134-0.59961-0.43608-0.86021-0.39872-1.3797-0.41475 0.10583-0.0099808 0.24937-0.024659 0.45299-0.057673-0.25438-0.16354-0.45537-0.15566-0.68249-0.16635-1.0982-0.051696-1.216 0.52399-1.3526 0.51158-0.59962-0.054508-0.90851 0.090853-1.1992 0.78132 0.041108 0.012315 0.34524-0.29072 0.47243-0.30889-0.36341 0.19987-0.64522 0.60147-0.72681 0.78131 0.34523-0.25438 0.16015-0.17484-0.041455 0.29261-0.098492 0.22838 0.26613 1.7624 0.2724 1.8453-0.002226-9.9012e-4 -0.0044303-0.0018212-0.0066057-0.0025295-0.040031-0.013594-0.073067 0.014136-0.077042 0.050677-0.017555 0.16195-0.033447 0.32428-0.042431 0.48692-0.01728 0.31404 0.10479 0.58373 0.25939 0.84787 0.065334 0.1116 0.099547 0.24817 0.14294 0.37297 0.014136 0.040631 0.027521 0.082643 0.049174 0.11926 0.032436 0.054818 0.088222 0.0673 0.14851 0.071426 0.017078 0.0011636 0.045726 0.020605 0.048466 0.034192v0.2079c0 0.24565 0.13575 0.49736 0.30977 0.65681 0.12572 0.11519 0.12202 0.32358 0.10698 0.49362-0.01444 0.16329-0.034459 0.28507-0.069294 0.42262-0.34406 0.0245-0.42916 0.072062-0.5572 0.31986-0.054414 0.10531-0.17347 0.37819-0.17061 0.39766-0.74468 0.25843-1.3932 0.33449-1.7926 0.54377-1.1361 0.5953-1.458 1.4707-1.5467 4.0705l5.7812-0.0057167 5.7739 0.0057167c-0.088678-2.5997-0.41058-3.4752-1.5467-4.0705-0.40596-0.21269 1.1361 0.5953 0 0"/></g></g></svg>
