<?xml version="1.0" encoding="UTF-8"?><svg version="1.1" viewBox="0 0 12 13" xmlns="http://www.w3.org/2000/svg"><g fill="none" fill-opacity=".13" fill-rule="evenodd"><g transform="translate(-2 -3)" fill="#000"><path d="m11.881 11.879c-0.3724-0.21525-0.98633-0.29887-1.687-0.56769 9.947e-4 -0.0084185-0.10879-0.27845-0.15873-0.38505-0.090138-0.19246-0.15716-0.26551-0.32608-0.3003h-0.3899c-0.01484-0.12041-0.020523-0.26266-0.018958-0.38429 0 0 0.39862 0.1003 0.7516-0.11425-0.27987-0.06266-0.59347-0.22736-0.1367-0.173 0.24327 0.035312 0.80479-0.1305 0.84959-0.39454-0.21456-0.069213-0.29805-0.39502-0.31935-0.48109 0.20441 0.17587 0.49453 0.1814 0.72692 0.056128 0 0-0.38682-0.27409-0.31068-0.59938 0.055375 0.27684 0.44312 0.284 0.44296 0.28376-0.24845-0.37315-0.22148-0.61598-0.019726-0.90939 0.27235-0.39605 0.32375-1.314 0.038084-2.0948-0.40346-1.1028-1.5486-3.1437-3.0954-2.7706-0.14422 0.034793-0.30334 0.18153-0.30334 0.18153s-0.20397-0.11771-0.39174-0.13594c-0.012214-0.0011849-0.024305-0.0021211-0.036336-0.0029256-0.52341-0.038296-1.0783 0.20536-1.4418 0.49044-0.57138 0.44813-0.79651 1.1559-1.0555 1.804-0.39666 0.99289-0.58059 1.9143-0.035619 2.8226 0.16835 0.28057-0.30878 0.5998-0.30878 0.5998 0.26856-0.013699 0.40378-0.11359 0.46885-0.23022-0.083329 0.37946-0.3571 0.43695-0.35703 0.43701 0.13621 0.11995 0.62577 0.15495 0.75913 0.092267 0.0078041-0.0036716 0.058783 0.25566-0.30454 0.35298 0.089985 0.20763 0.50724 0.55771 0.96404 0.43312 0.51744-0.14112 0.14336 0.15518-0.18194 0.16903 0.20763 0.20763 0.69531 0.13768 0.69531 0.13768 0.0038472 0.13045-0.0012507 0.29418-0.018 0.43007h-0.44669c-0.13587 0.042794-0.23858 0.13914-0.31406 0.3003-0.049911 0.1066-0.15913 0.38274-0.1565 0.40245-0.68312 0.26154-1.278 0.3385-1.6444 0.55029-1.0422 0.60245-1.3375 1.4884-1.4188 4.1194h10.6c-0.081325-2.631-0.37664-3.5169-1.4188-4.1194"/></g></g></svg>
