<?xml version="1.0" encoding="UTF-8"?>
<svg width="16px" height="12px" viewBox="0 0 16 12" version="1.1" xmlns="http://www.w3.org/2000/svg" xmlns:xlink="http://www.w3.org/1999/xlink">
  <path fill="#128C01" d="M15.2137571,2.0077118 C13.5468002,2.98213444 12.7133217,4.0961847 12.7133217,5.3498626 C13.6427949,5.46572383 14.4275141,5.84895712 15.0705268,6.49807708 C15.6891598,7.17244884 16,7.92554682 16,8.76182722 C16,9.69020245 15.7013496,10.4551836 15.1070962,11.0597416 C14.5113191,11.6865805 13.7494558,12 12.8215063,12 C11.7731824,12 10.8802786,11.5930003 10.1427949,10.7804863 C9.38093165,9.96797231 9,8.98166648 9,7.8215688 C9,4.64132663 10.6898128,2.08940882 14.0709621,0.162844559 C14.3330431,-0.000549480088 14.601219,-0.0406552897 14.873966,0.0410417299 C15.1482368,0.121253349 15.3569874,0.29058899 15.4986939,0.546077851 L15.6068785,0.719869693 C15.7257292,0.951592148 15.7501088,1.19519781 15.6784937,1.45068667 C15.6068785,1.70617553 15.4514584,1.89185057 15.2137571,2.0077118 M6.17871136,2.04875319 C4.48737484,3.00023726 3.64170657,4.10164316 3.64170657,5.35445525 C4.61841532,5.44797085 5.41684806,5.8294551 6.03548106,6.50187676 C6.67849369,7.1520328 7,7.90609506 7,8.76406354 C7,9.645782 6.6906835,10.4102349 6.07052677,11.0603909 C5.45189377,11.686797 4.67784066,12 3.74989116,12 C2.72594689,12 1.84523291,11.5932814 1.10622551,10.7813285 C0.368741837,9.99312564 0,9.00750096 0,7.82445446 C0,4.62414299 1.67762299,2.07250318 5.03591641,0.171019414 C5.29647366,0.00773821644 5.56464954,-0.0382773938 5.83892033,0.0314882088 C6.11319112,0.101253811 6.32041794,0.263050635 6.46364824,0.518363053 L6.5703091,0.727659861 C6.6906835,0.959222287 6.7135394,1.20265971 6.64192425,1.45797213 C6.5703091,1.71328455 6.41641271,1.91070636 6.17871136,2.04875319" id="pseudo-element"></path>
</svg>
